<?xml version="1.0" encoding="UTF-8" standalone="no"?>
<!-- Created with Inkscape (http://www.inkscape.org/) -->

<svg
   width="35.495449"
   height="35.710949"
   viewBox="0 0 35.495449 35.71095"
   id="svg2"
   version="1.1"
   inkscape:version="1.2 (dc2aedaf03, 2022-05-15)"
   sodipodi:docname="dark-mode.svg"
   xml:space="preserve"
   xmlns:inkscape="http://www.inkscape.org/namespaces/inkscape"
   xmlns:sodipodi="http://sodipodi.sourceforge.net/DTD/sodipodi-0.dtd"
   xmlns="http://www.w3.org/2000/svg"
   xmlns:svg="http://www.w3.org/2000/svg"
   xmlns:rdf="http://www.w3.org/1999/02/22-rdf-syntax-ns#"
   xmlns:cc="http://creativecommons.org/ns#"
   xmlns:dc="http://purl.org/dc/elements/1.1/"><defs
     id="defs4" /><sodipodi:namedview
     id="base"
     pagecolor="#ffffff"
     bordercolor="#666666"
     borderopacity="1.0"
     inkscape:pageopacity="0.0"
     inkscape:pageshadow="2"
     inkscape:zoom="3.9711774"
     inkscape:cx="18.760179"
     inkscape:cy="31.099089"
     inkscape:document-units="px"
     inkscape:current-layer="g4230"
     showgrid="false"
     units="px"
     inkscape:snap-grids="true"
     inkscape:window-width="1368"
     inkscape:window-height="850"
     inkscape:window-x="-6"
     inkscape:window-y="-6"
     inkscape:window-maximized="1"
     inkscape:showpageshadow="0"
     inkscape:pagecheckerboard="0"
     inkscape:deskcolor="#d1d1d1" /><metadata
     id="metadata7"><rdf:RDF><cc:Work
         rdf:about=""><dc:format>image/svg+xml</dc:format><dc:type
           rdf:resource="http://purl.org/dc/dcmitype/StillImage" /></cc:Work></rdf:RDF></metadata><g
     id="g4230"
     transform="matrix(0.09,0,0,0.09,-13.286896,-12.384252)"
     style="display:inline;stroke-width:1.1;stroke-dasharray:none"><path
       d="m 456.55162,500.5797 c 29.30412,-16.47239 52.64232,-39.45285 69.23692,-66.10953 -4.76718,3.36625 -9.751,6.52252 -14.94924,9.44438 -81.98534,46.08536 -185.81016,16.98121 -231.89331,-65.00412 -46.08314,-81.98533 -16.98121,-185.81016 65.00412,-231.8933 5.19824,-2.92186 10.48536,-5.53931 15.83914,-7.86235 -31.39831,0.32107 -63.16213,8.31341 -92.46625,24.78469 -92.96063,52.25348 -125.96207,169.9788 -73.70636,262.93387 52.2557,92.95507 169.9788,125.96207 262.93387,73.71303 z"
       fill="#b3b3b3"
       id="path4211"
       style="fill:#000000;stroke-width:1.22207" /><polygon
       points="382.48,354.16 387.12,327.11 367.46,307.94 394.62,304 406.78,279.38 418.92,304 446.09,307.94 426.43,327.11 431.07,354.16 406.78,341.39 "
       fill="#fcee21"
       id="polygon4213"
       transform="matrix(1.1109725,0,0,1.1109725,-46.709443,-12.15474)"
       style="fill:#000000" /><polygon
       points="476.64,358.18 464.32,364.66 466.67,350.94 456.7,341.22 470.48,339.22 476.64,326.73 482.8,339.22 496.58,341.22 486.61,350.94 488.96,364.66 "
       fill="#fcee21"
       id="polygon4215"
       style="fill:#000000"
       transform="matrix(1.1109725,0,0,1.1109725,-18.733545,-40.130639)" /><polygon
       points="329.48,272.9 317.15,279.38 319.5,265.66 309.54,255.94 323.31,253.94 329.48,241.45 335.64,253.94 349.42,255.94 339.44,265.66 341.8,279.38 "
       fill="#fcee21"
       id="polygon4217"
       style="fill:#000000"
       transform="matrix(1.1109725,0,0,1.1109725,-18.733545,-40.130639)" /></g></svg>
