<?xml version="1.0" encoding="UTF-8" standalone="no"?>
<!-- Created with Inkscape (http://www.inkscape.org/) -->

<svg
   width="500"
   height="500"
   viewBox="0 0 132.29166 132.29167"
   version="1.1"
   id="svg658"
   xml:space="preserve"
   xmlns="http://www.w3.org/2000/svg"
   xmlns:svg="http://www.w3.org/2000/svg"><defs
     id="defs655" /><g
     id="layer1"><path
       d="m 119.88933,16.536463 c 6.84711,0 12.40234,5.552634 12.40234,12.402344 0,3.901571 -1.83452,7.570598 -4.96094,9.921874 L 71.106765,81.028649 c -2.945556,2.196248 -6.976318,2.196248 -9.921874,0 L 4.9609351,38.860681 C 1.8378704,36.509405 -1.6666667e-6,32.840378 -1.6666667e-6,28.938807 -1.6666667e-6,22.089097 5.5526311,16.536463 12.402341,16.536463 Z M 56.223952,87.643231 c 5.891114,4.418335 13.952637,4.418335 19.84375,0 L 132.29167,45.475265 v 53.743488 c 0,9.120887 -7.41559,16.536447 -16.53647,16.536447 H 16.536454 C 7.4026473,115.7552 -1.6666667e-6,108.33964 -1.6666667e-6,99.218753 V 45.475265 Z"
       id="path920"
       style="stroke-width:0.258382" /><path
       style="fill:#ffffff;stroke:#ffffff;stroke-width:1.1962;stroke-linecap:round;stroke-linejoin:round"
       d="M 238.5187,309.32799 C 235.81972,308.10228 183.98383,269.87411 123.32781,224.37649 21.315181,147.8576 12.703268,141.12616 8.4990274,134.62139 2.4542024,125.26887 0.84513435,118.9832 1.3930037,106.86239 1.7351812,99.292213 2.5893699,95.308022 4.9411439,90.312809 11.227499,76.960467 23.641389,67.13861 38.038106,64.126525 c 8.966792,-1.876034 414.966984,-1.876034 423.933774,0 14.39671,3.012085 26.81061,12.833942 33.09697,26.186284 2.35177,4.995213 3.20596,8.979404 3.54813,16.549581 0.54787,12.12081 -1.06119,18.40648 -7.10601,27.759 -4.20425,6.50477 -12.81617,13.23621 -114.82879,89.7551 -60.65602,45.49762 -112.49191,83.72579 -115.19089,84.9515 -2.88239,1.30902 -7.62189,2.22857 -11.4863,2.22857 -3.8644,0 -8.6039,-0.91955 -11.48629,-2.22857 z"
       id="path929"
       transform="scale(0.26458333)" /><path
       style="fill:#ffffff;stroke:#ffffff;stroke-width:1.1962;stroke-linecap:round;stroke-linejoin:round"
       d="M 49.535594,435.43469 C 28.617067,430.88321 10.426869,414.20357 3.297919,393.03671 0.65628165,385.19332 0.64927541,384.92946 0.26511786,278.81652 -0.05036883,191.67204 0.1610263,172.67833 1.4352806,173.67818 22.608802,190.29211 216.49739,334.63866 220.73175,336.94044 c 16.87798,9.17478 40.35951,9.31685 58.05229,0.35124 3.3061,-1.67535 54.46131,-39.37957 113.67823,-83.78716 l 107.66712,-80.74109 -0.38479,106.20586 c -0.38387,105.95554 -0.39101,106.2244 -3.03254,114.06742 -7.37011,21.88292 -26.57877,38.80585 -48.65725,42.8673 -11.26402,2.07207 -388.882886,1.62737 -398.519216,-0.46932 z"
       id="path931"
       transform="scale(0.26458333)" /></g></svg>
