<?xml version="1.0" encoding="UTF-8" standalone="no"?>
<!-- Created with Inkscape (http://www.inkscape.org/) -->

<svg
   width="500"
   height="500"
   viewBox="0 0 132.29166 132.29167"
   version="1.1"
   id="svg658"
   xml:space="preserve"
   xmlns="http://www.w3.org/2000/svg"
   xmlns:svg="http://www.w3.org/2000/svg"><defs
     id="defs655" /><g
     id="layer1"><path
       d="M 29.631102,132.3307 H 2.1865795 V 43.95154 H 29.631102 Z M 15.894066,31.895807 C 7.118202,31.895807 0,24.626909 0,15.851044 a 15.894067,15.894067 0 0 1 31.788133,0 c 0,8.775865 -7.121156,16.044763 -15.894067,16.044763 z M 132.34713,132.3307 H 104.96171 V 89.308283 c 0,-10.253284 -0.20684,-23.402306 -14.26891,-23.402306 -14.268906,0 -16.455484,11.139734 -16.455484,22.663597 V 132.3307 H 46.822341 V 43.95154 h 26.321685 v 12.055734 h 0.384129 c 3.663997,-6.943866 12.614197,-14.271861 25.967107,-14.271861 27.775458,0 32.881418,18.290439 32.881418,42.047326 V 132.3307 Z"
       id="path962"
       style="stroke-width:0.295483" /><path
       style="fill:#ffffff;stroke:#ffffff;stroke-width:1.1962;stroke-linecap:round;stroke-linejoin:round"
       d="M 8.373373,333.14063 V 166.86936 H 59.809807 111.24624 V 333.14063 499.41189 H 59.809807 8.373373 Z"
       id="path971"
       transform="scale(0.26458333)" /><path
       style="fill:#ffffff;stroke:#ffffff;stroke-width:1.1962;stroke-linecap:round;stroke-linejoin:round"
       d="M 49.64214,118.97474 C 21.183162,113.14086 1.1364344,88.957775 1.0927728,60.407905 1.041266,26.728265 27.132542,0.59809807 60.813562,0.59809807 c 15.31587,0 28.80625,5.90300293 40.969178,17.92693793 23.61669,23.346797 23.58967,59.629244 -0.0622,83.592174 -13.651847,13.83137 -34.275192,20.50706 -52.07836,16.85753 z"
       id="path973"
       transform="scale(0.26458333)" /><path
       style="fill:#ffffff;stroke:#ffffff;stroke-width:1.1962;stroke-linecap:round;stroke-linejoin:round"
       d="M 177.03703,333.14063 V 166.86936 h 49.64214 49.64214 v 22.72773 c 0,12.76343 0.4746,22.72773 1.08253,22.72773 0.59539,0 2.57187,-2.55687 4.39216,-5.68194 1.8203,-3.12506 6.85062,-9.37539 11.17848,-13.88963 20.88761,-21.78708 46.03166,-32.57471 79.04252,-33.91185 26.3642,-1.06791 48.49743,2.92527 67.58508,12.19339 37.07898,18.00393 54.85795,52.95817 59.16907,116.32899 0.661,9.71644 1.21015,61.40216 1.22033,114.85717 l 0.0185,97.19094 H 448.6366 397.26322 l -0.464,-99.58333 C 396.30005,292.69532 396.399,294.45165 389.9386,278.06149 c -5.26156,-13.3487 -15.26224,-22.90978 -28.36593,-27.11906 -7.28105,-2.33888 -28.57618,-2.59583 -37.40353,-0.45132 -20.20364,4.90827 -33.31648,18.54681 -39.42994,41.01074 -4.31914,15.87073 -4.80943,27.98602 -4.8195,119.09248 l -0.01,88.81756 h -51.43644 -51.43643 z"
       id="path975"
       transform="scale(0.26458333)" /></g></svg>
