<?xml version="1.0" encoding="UTF-8" standalone="no"?>
<!-- Created with Inkscape (http://www.inkscape.org/) -->

<svg
   width="500"
   height="500"
   viewBox="0 0 132.29166 132.29167"
   version="1.1"
   id="svg658"
   xml:space="preserve"
   inkscape:version="1.2 (dc2aedaf03, 2022-05-15)"
   sodipodi:docname="code-logo.svg"
   xmlns:inkscape="http://www.inkscape.org/namespaces/inkscape"
   xmlns:sodipodi="http://sodipodi.sourceforge.net/DTD/sodipodi-0.dtd"
   xmlns="http://www.w3.org/2000/svg"
   xmlns:svg="http://www.w3.org/2000/svg"><sodipodi:namedview
     id="namedview660"
     pagecolor="#505050"
     bordercolor="#eeeeee"
     borderopacity="1"
     inkscape:showpageshadow="0"
     inkscape:pageopacity="0"
     inkscape:pagecheckerboard="0"
     inkscape:deskcolor="#505050"
     inkscape:document-units="mm"
     showgrid="false"
     inkscape:zoom="0.8359833"
     inkscape:cx="276.32131"
     inkscape:cy="250.60309"
     inkscape:window-width="1368"
     inkscape:window-height="850"
     inkscape:window-x="-6"
     inkscape:window-y="-6"
     inkscape:window-maximized="1"
     inkscape:current-layer="layer1" /><defs
     id="defs655" /><g
     inkscape:label="Layer 1"
     inkscape:groupmode="layer"
     id="layer1"><path
       d="M 85.744886,21.657832 59.28552,114.26769 c -1.012898,3.51414 -4.671733,5.53992 -8.185867,4.5477 -3.514134,-1.01289 -5.53993,-4.67173 -4.547703,-8.18586 L 73.011316,18.023803 c 1.012899,-3.512894 4.671733,-5.546957 8.185867,-4.543156 3.514136,1.003596 5.539932,4.665117 4.547703,8.177185 z m 21.456894,16.6632 23.15194,23.151947 c 2.58393,2.583922 2.58393,6.759541 0,9.343464 l -23.15194,23.151946 c -2.58393,2.58392 -6.75954,2.58392 -9.343464,0 -2.58393,-2.58392 -2.58393,-6.75954 0,-9.343464 L 116.31785,66.144711 97.858316,47.664496 c -2.58393,-2.583922 -2.58393,-6.759542 0,-9.343464 2.583924,-2.583923 6.759534,-2.583923 9.343464,0 z M 34.438519,47.664496 15.968642,66.144711 34.438519,84.624925 c 2.583924,2.583924 2.583924,6.759544 0,9.343464 -2.58392,2.58392 -6.75954,2.58392 -9.343463,0 L 1.9373212,70.816443 c -2.58309548,-2.583923 -2.58309548,-6.759542 0,-9.343464 L 25.095056,38.321032 c 2.583923,-2.583923 6.759543,-2.583923 9.343463,0 2.583924,2.583922 2.583924,6.759542 0,9.343464 z"
       id="path1011"
       style="stroke-width:0.206713" /><path
       style="fill:#ffffff;stroke:#ffffff;stroke-width:1.1962;stroke-linecap:round;stroke-linejoin:round"
       d="M 104.06906,360.51937 C 100.90561,359.57245 88.532022,347.96081 53.440998,313.00894 27.898239,287.56748 5.6553987,264.48569 4.0124644,261.71607 1.7854905,257.96188 1.025311,254.98161 1.025311,250.00499 c 0,-4.97662 0.7601795,-7.95688 2.9871534,-11.71107 1.6429343,-2.76962 23.8857746,-25.82853 49.4285336,-51.24201 50.217222,-49.96307 49.914112,-49.724 61.617402,-48.59946 15.92166,1.52987 25.8234,18.88298 19.46205,34.10784 -1.21311,2.90337 -14.32951,16.94384 -38.260762,40.95629 l -36.414844,36.53839 35.894757,35.8609 c 22.660899,22.63952 36.767069,37.65395 38.260759,40.72429 7.48396,15.38359 -2.49563,33.35703 -19.23076,34.635 -3.58262,0.27358 -8.39786,-0.0665 -10.70054,-0.75579 z"
       id="path1020"
       transform="scale(0.26458333)" /><path
       style="fill:#ffffff;stroke:#ffffff;stroke-width:1.1962;stroke-linecap:round;stroke-linejoin:round"
       d="m 188.88808,446.38838 c -2.89958,-1.53081 -6.84099,-5.01081 -8.75867,-7.73335 -7.13043,-10.12307 -9.8571,1.34958 46.54179,-195.82721 55.502,-194.041178 52.10927,-183.819707 62.83202,-189.298043 10.60309,-5.417203 23.36545,-2.12963 30.37736,7.82518 7.18019,10.193726 9.95031,-1.485247 -46.43548,195.773923 -55.58659,194.46325 -52.036,183.78124 -62.93833,189.35133 -6.97098,3.56153 -14.7613,3.52843 -21.61869,-0.0919 z"
       id="path1022"
       transform="scale(0.26458333)" /><path
       style="fill:#ffffff;stroke:#ffffff;stroke-width:1.1962;stroke-linecap:round;stroke-linejoin:round"
       d="m 379.22992,360.51846 c -13.34998,-5.32793 -19.47448,-21.02258 -13.22029,-33.8783 1.49369,-3.07034 15.59986,-18.08477 38.26076,-40.72429 l 35.89475,-35.8609 -36.41484,-36.53839 c -23.93125,-24.01245 -37.04766,-38.05292 -38.26076,-40.95629 -6.36135,-15.22486 3.54039,-32.57797 19.46205,-34.10784 11.68668,-1.12294 11.44977,-1.30915 61.0722,48.00165 25.24289,25.08437 47.44729,48.00106 49.34309,50.92598 4.91674,7.58572 4.91674,17.66411 0,25.24983 -1.8958,2.92492 -24.1002,25.85662 -49.34309,50.95933 -38.66485,38.45014 -46.65006,45.84656 -50.68096,46.94403 -5.80236,1.57976 -12.13202,1.57395 -16.11291,-0.0148 z"
       id="path1024"
       transform="scale(0.26458333)" /></g></svg>
