<?xml version="1.0" encoding="UTF-8" standalone="no"?>
<!-- Created with Inkscape (http://www.inkscape.org/) -->

<svg
   width="500"
   height="500"
   viewBox="0 0 500 500"
   version="1.1"
   id="svg5"
   xml:space="preserve"
   xmlns="http://www.w3.org/2000/svg"
   xmlns:svg="http://www.w3.org/2000/svg"><defs
     id="defs2" /><g
     id="layer1"><path
       d="m 167.9,397.59628 c 0,2 -2.3,3.6 -5.2,3.6 -3.3,0.3 -5.6,-1.3 -5.6,-3.6 0,-2 2.3,-3.6 5.2,-3.6 3,-0.3 5.6,1.3 5.6,3.6 z m -31.1,-4.5 c -0.7,2 1.3,4.3 4.3,4.9 2.6,1 5.6,0 6.2,-2 0.6,-2 -1.3,-4.3 -4.3,-5.2 -2.6,-0.7 -5.5,0.3 -6.2,2.3 z m 44.2,-1.7 c -2.9,0.7 -4.9,2.6 -4.6,4.9 0.3,2 2.9,3.3 5.9,2.6 2.9,-0.7 4.9,-2.6 4.6,-4.6 -0.3,-1.9 -3,-3.2 -5.9,-2.9 z m 65.8,-383.2 c -138.7,0 -244.8000012,105.3 -244.8000012,244 0,110.9 69.8000012,205.8 169.5000012,239.2 12.8,2.3 17.3,-5.6 17.3,-12.1 0,-6.2 -0.3,-40.4 -0.3,-61.4 0,0 -70,15 -84.7,-29.8 0,0 -11.4,-29.1 -27.8,-36.6 0,0 -22.9,-15.7 1.6,-15.4 0,0 24.9,2 38.6,25.8 21.9,38.6 58.6,27.5 72.9,20.9 2.3,-16 8.8,-27.1 16,-33.7 -55.9,-6.2 -112.3,-14.3 -112.3,-110.5 0,-27.5 7.6,-41.3 23.6,-58.9 -2.6,-6.5 -11.1,-33.3 2.6,-67.9 20.9,-6.5 69,27 69,27 20,-5.6 41.5,-8.5 62.8,-8.5 21.3,0 42.8,2.9 62.8,8.5 0,0 48.1,-33.6 69,-27 13.7,34.7 5.2,61.4 2.6,67.9 16,17.7 25.8,31.5 25.8,58.9 0,96.5 -58.9,104.2 -114.8,110.5 9.2,7.9 17,22.9 17,46.4 0,33.7 -0.3,75.4 -0.3,83.6 0,6.5 4.6,14.4 17.3,12.1 100,-33.2 167.8,-128.1 167.8,-239 0,-138.7 -112.5,-244 -251.2,-244 z m -147.599999,344.9 c -1.300001,1 -1,3.3 0.7,5.2 1.599999,1.6 3.899999,2.3 5.199999,1 1.3,-1 1,-3.3 -0.7,-5.2 -1.6,-1.6 -3.9,-2.3 -5.199999,-1 z M 88.4,344.99628 c -0.7,1.3 0.3,2.9 2.3,3.9 1.6,1 3.6,0.7 4.3,-0.7 0.7,-1.3 -0.3,-2.9 -2.3,-3.9 -2,-0.6 -3.6,-0.3 -4.3,0.7 z m 32.4,35.6 c -1.6,1.3 -1,4.3 1.3,6.2 2.3,2.3 5.2,2.6 6.5,1 1.3,-1.3 0.7,-4.3 -1.3,-6.2 -2.2,-2.3 -5.2,-2.6 -6.5,-1 z m -11.4,-14.7 c -1.6,1 -1.6,3.6 0,5.9 1.6,2.3 4.3,3.3 5.6,2.3 1.6,-1.3 1.6,-3.9 0,-6.2 -1.4,-2.3 -4,-3.3 -5.6,-2 z"
       id="path377"
       style="fill:#ffffff;stroke:#ffffff" /><path
       style="fill:#ffffff;stroke:#ffffff;stroke-width:1.22767;stroke-linecap:round;stroke-linejoin:round"
       d="m 163.89461,487.93864 c -14.66075,-5.41237 -35.81155,-16.247 -49.22963,-25.2182 C 29.117842,405.5245 -12.833164,302.39432 7.9774941,200.44548 22.887477,127.40331 69.738266,66.436522 135.65809,34.295118 170.03186,17.535043 199.48745,10.552756 240.01046,9.5589565 c 45.0968,-1.1059682 80.50521,6.2395175 119.08447,24.7041095 103.42065,49.498607 156.35816,158.519694 132.3938,272.655684 -15.78503,75.17999 -63.1529,136.88239 -131.26565,170.98942 -22.96183,11.49799 -35.99745,14.82866 -41.88815,10.70267 -5.28697,-3.70315 -5.70347,-8.21099 -4.81725,-52.13737 1.09473,-54.26081 -0.55731,-66.55507 -10.90612,-81.16144 l -3.98497,-5.62441 17.95742,-2.64608 c 34.96103,-5.15162 53.38686,-12.74089 68.91236,-28.38379 11.03493,-11.11836 16.95231,-22.02515 21.68836,-39.97553 2.90958,-11.02777 3.25098,-14.58735 3.35583,-34.98873 0.11061,-21.52067 -0.0496,-23.16662 -3.05524,-31.37939 -3.21697,-8.79034 -9.74296,-19.35605 -17.30937,-28.02422 l -4.16553,-4.77206 2.27713,-8.73237 c 4.85069,-18.60151 0.0721,-56.95616 -7.45268,-59.81705 -8.82422,-3.35497 -36.57273,7.04426 -60.8715,22.81263 l -6.29241,4.08337 -14.04875,-2.8959 c -34.58807,-7.1297 -73.88191,-6.6662 -104.11245,1.22808 l -6.90772,1.80386 -9.89837,-5.96994 c -25.58463,-15.43072 -46.88309,-23.41175 -57.0507,-21.37823 -3.14004,0.62801 -3.78711,1.63373 -6.09809,9.47808 -5.49041,18.63653 -6.10988,36.08966 -1.8712,52.71922 l 1.81314,7.11345 -5.51712,6.3069 c -15.190252,17.36474 -20.189067,39.40294 -16.645175,73.38334 4.86813,46.67777 25.774765,72.16097 67.986275,82.8688 6.67557,1.69339 18.98333,3.99185 27.3506,5.10767 l 15.2132,2.02877 -3.0326,3.18362 c -4.02364,4.224 -10.28349,17.673 -11.26149,24.19481 -0.68703,4.58143 -1.32941,5.43362 -5.25937,6.977 -14.53459,5.70802 -31.65628,5.9486 -43.32015,0.6087 -9.31486,-4.26448 -16.11774,-10.6994 -24.07558,-22.77333 -3.67439,-5.57492 -8.6993,-11.8135 -11.16647,-13.86351 -10.297072,-8.556 -27.199478,-14.02306 -36.296138,-11.73994 -2.470589,0.62008 -3.178353,1.56151 -3.178353,4.22766 0,3.80803 3.252908,7.31144 12.676789,13.65304 3.258517,2.19273 8.35453,7.28766 11.324474,11.32204 4.939554,6.70991 7.521902,11.50002 15.284898,28.35258 5.73244,12.44445 18.67646,21.3195 36.48499,25.01586 7.33244,1.52193 13.76036,1.83514 27.66047,1.34779 l 18.1082,-0.63488 v 31.86079 c 0,20.47511 -0.47403,32.74654 -1.32649,34.33937 -1.30142,2.43172 -8.11497,6.0117 -11.21774,5.89404 -0.86572,-0.0328 -5.99366,-1.6913 -11.39543,-3.6855 z"
       id="path578" /></g></svg>
