<?xml version="1.0" encoding="UTF-8" standalone="no"?>
<!-- Created with Inkscape (http://www.inkscape.org/) -->

<svg
   width="36.295448"
   height="36.510948"
   viewBox="0 0 36.295448 36.510949"
   id="svg2"
   version="1.1"
   inkscape:version="1.2 (dc2aedaf03, 2022-05-15)"
   sodipodi:docname="light-mode.svg"
   xml:space="preserve"
   xmlns:inkscape="http://www.inkscape.org/namespaces/inkscape"
   xmlns:sodipodi="http://sodipodi.sourceforge.net/DTD/sodipodi-0.dtd"
   xmlns="http://www.w3.org/2000/svg"
   xmlns:svg="http://www.w3.org/2000/svg"
   xmlns:rdf="http://www.w3.org/1999/02/22-rdf-syntax-ns#"
   xmlns:cc="http://creativecommons.org/ns#"
   xmlns:dc="http://purl.org/dc/elements/1.1/"><defs
     id="defs4" /><sodipodi:namedview
     id="base"
     pagecolor="#ffffff"
     bordercolor="#666666"
     borderopacity="1.0"
     inkscape:pageopacity="0.0"
     inkscape:pageshadow="2"
     inkscape:zoom="5.6081513"
     inkscape:cx="-11.055337"
     inkscape:cy="20.41671"
     inkscape:document-units="px"
     inkscape:current-layer="layer1"
     showgrid="false"
     units="px"
     inkscape:snap-grids="true"
     inkscape:window-width="1368"
     inkscape:window-height="850"
     inkscape:window-x="-6"
     inkscape:window-y="-6"
     inkscape:window-maximized="1"
     inkscape:showpageshadow="0"
     inkscape:pagecheckerboard="0"
     inkscape:deskcolor="#d1d1d1" /><metadata
     id="metadata7"><rdf:RDF><cc:Work
         rdf:about=""><dc:format>image/svg+xml</dc:format><dc:type
           rdf:resource="http://purl.org/dc/dcmitype/StillImage" /></cc:Work></rdf:RDF></metadata><g
     inkscape:label="sun"
     inkscape:groupmode="layer"
     id="layer1"
     transform="translate(-19.495135,-671.643)"
     style="display:inline;stroke-width:1.1;stroke-dasharray:none"><g
       inkscape:label="Capa 1"
       id="layer1-6"
       transform="matrix(0.04596147,0,0,0.04596147,19.354583,660.00351)"
       style="fill:#000000"><path
         inkscape:connector-curvature="0"
         style="display:inline;fill:#000000;fill-opacity:1;fill-rule:evenodd;stroke:none;stroke-width:1.25;stroke-miterlimit:4;stroke-dasharray:none;stroke-opacity:1"
         d="M 715.38467,890.82369 H 546.1539 L 484.61543,1044.6698 361.53851,936.97754 223.07697,1013.9006 192.30774,860.05446 23.076972,813.90061 115.38466,675.43907 7.6923561,552.36215 161.53852,490.82369 176.92313,321.59292 330.76929,383.13138 438.46159,260.05446 515.38467,398.516 684.61544,383.13138 653.84621,536.97754 792.30774,629.28523 669.23082,736.97753 Z"
         id="path2991" /><path
         inkscape:connector-curvature="0"
         style="display:inline;fill:#000000;stroke:none;stroke-width:1.25;stroke-linecap:round;stroke-linejoin:round;stroke-miterlimit:4;stroke-dasharray:none;stroke-opacity:0"
         d="M 715.38467,890.82369 H 546.1539 L 484.61543,1044.6698 361.53851,936.97754 223.07697,1013.9006 192.30774,860.05446 23.076972,813.90061 115.38466,675.43907 7.6923561,552.36215 161.53852,490.82369 l 15.38461,-169.23077 153.84616,61.53846 107.6923,-123.07692 76.92308,138.46154 169.23077,-15.38462 -30.76923,153.84616 138.46153,92.30769 -123.07692,107.6923 46.15385,153.84616"
         id="path2993" /><path
         inkscape:connector-curvature="0"
         style="fill:#000000;fill-opacity:1;fill-rule:evenodd;stroke:none"
         d="M 715.38467,890.82369 469.23082,844.66984 484.61543,1044.6698 330.76929,860.05446 223.07697,1013.9006 207.69236,767.74676 23.076972,813.90061 192.30774,629.28523 7.6923561,552.36215 253.84621,490.82369 176.92313,321.59292 392.30774,444.66985 438.46159,260.05446 530.76928,490.82369 684.61544,383.13138 592.30775,613.90062 792.30774,629.28523 576.92313,752.36215 Z"
         id="path2995" /><path
         inkscape:connector-curvature="0"
         style="fill:#000000;stroke:none;stroke-width:1.25;stroke-linecap:round;stroke-linejoin:round;stroke-miterlimit:4;stroke-dasharray:none;stroke-opacity:1"
         d="M 715.38467,890.82369 469.23082,844.66984 484.61543,1044.6698 330.76929,860.05446 223.07697,1013.9006 207.69236,767.74676 23.076972,813.90061 192.30774,629.28523 7.6923561,552.36215 253.84621,490.82369 176.92313,321.59292 392.30774,444.66985 438.46159,260.05446 530.76928,490.82369 684.61544,383.13138 592.30775,613.90062 792.30774,629.28523 576.92313,752.36215 715.38467,890.82369"
         id="path2997" /><ellipse
         style="fill:none;fill-opacity:1;fill-rule:nonzero;stroke:#ffffff;stroke-width:24.60756803;stroke-miterlimit:4;stroke-dasharray:none;stroke-opacity:1"
         cx="393.46918"
         cy="654.22992"
         id="ellipse2999"
         rx="237.03043"
         ry="237.03395" /></g></g></svg>
